<?xml version="1.0" encoding="utf-8"?>
<!-- Generator: Adobe Illustrator 22.1.0, SVG Export Plug-In . SVG Version: 6.00 Build 0)  -->
<svg version="1.1" id="Layer_1" xmlns="http://www.w3.org/2000/svg" xmlns:xlink="http://www.w3.org/1999/xlink" x="0px" y="0px"
	 viewBox="0 0 283 283" style="enable-background:new 0 0 283 283;" xml:space="preserve">
<style type="text/css">
	.st0{fill-rule:evenodd;clip-rule:evenodd;fill:#004996;}
	.st1{fill-rule:evenodd;clip-rule:evenodd;fill:#F39325;}
	.st2{fill-rule:evenodd;clip-rule:evenodd;}
	.st3{fill-rule:evenodd;clip-rule:evenodd;fill:#E6007E;}
</style>
<g>
	<path class="st0" d="M90.5,174.9c0.4,0,0.7,0.1,1,0.4l2.6,2.9c-1.5,1.8-3.2,3.2-5.4,4.1c-2.1,1-4.7,1.4-7.7,1.4
		c-2.7,0-5.1-0.5-7.2-1.4c-2.1-0.9-3.9-2.2-5.5-3.8c-1.5-1.6-2.7-3.6-3.5-5.8c-0.8-2.3-1.2-4.7-1.2-7.4c0-2.7,0.4-5.2,1.3-7.4
		c0.9-2.2,2.1-4.2,3.6-5.8c1.6-1.6,3.4-2.9,5.6-3.8c2.2-0.9,4.6-1.3,7.2-1.3c2.6,0,4.9,0.4,7,1.3c2,0.9,3.7,2,5.2,3.4l-2.2,3.1
		c-0.1,0.2-0.3,0.4-0.5,0.5c-0.2,0.1-0.5,0.2-0.9,0.2c-0.2,0-0.5-0.1-0.8-0.2c-0.3-0.1-0.6-0.3-0.9-0.5c-0.3-0.2-0.7-0.4-1.1-0.7
		c-0.4-0.2-0.9-0.5-1.4-0.7c-0.5-0.2-1.2-0.4-1.9-0.5c-0.7-0.1-1.6-0.2-2.5-0.2c-1.6,0-3.1,0.3-4.4,0.9c-1.3,0.6-2.5,1.4-3.4,2.5
		c-1,1.1-1.7,2.4-2.2,4c-0.5,1.6-0.8,3.4-0.8,5.4c0,2,0.3,3.8,0.9,5.4c0.6,1.6,1.3,2.9,2.3,4c1,1.1,2.1,1.9,3.4,2.5
		c1.3,0.6,2.7,0.9,4.3,0.9c0.9,0,1.7,0,2.5-0.1c0.7-0.1,1.4-0.3,2-0.5c0.6-0.2,1.2-0.5,1.8-0.8c0.6-0.3,1.1-0.8,1.6-1.2
		c0.2-0.1,0.3-0.3,0.5-0.4C90.1,175,90.3,174.9,90.5,174.9L90.5,174.9z M111.2,172.5c-1.8,0.1-3.3,0.2-4.5,0.5
		c-1.2,0.2-2.2,0.5-2.9,0.9c-0.7,0.3-1.2,0.8-1.6,1.2c-0.3,0.5-0.5,1-0.5,1.5c0,1.1,0.3,1.8,1,2.3c0.6,0.5,1.5,0.7,2.5,0.7
		c1.3,0,2.3-0.2,3.3-0.7c0.9-0.5,1.8-1.1,2.7-2.1V172.5L111.2,172.5z M97.2,161.5c2.9-2.7,6.5-4,10.6-4c1.5,0,2.8,0.2,4,0.7
		c1.2,0.5,2.2,1.2,3,2c0.8,0.9,1.4,1.9,1.9,3.1c0.4,1.2,0.6,2.5,0.6,4v16.1h-2.8c-0.6,0-1-0.1-1.3-0.3c-0.3-0.2-0.6-0.5-0.7-1.1
		l-0.5-1.8c-0.6,0.6-1.3,1.1-1.9,1.5c-0.6,0.4-1.2,0.8-1.9,1.1c-0.7,0.3-1.4,0.5-2.1,0.7c-0.8,0.2-1.6,0.2-2.5,0.2
		c-1.1,0-2.1-0.1-3-0.4c-0.9-0.3-1.7-0.7-2.4-1.3c-0.7-0.6-1.2-1.3-1.5-2.2c-0.4-0.9-0.5-1.9-0.5-3c0-0.6,0.1-1.3,0.3-1.9
		c0.2-0.6,0.6-1.2,1.1-1.8c0.5-0.6,1.1-1.1,1.9-1.6c0.8-0.5,1.7-1,2.9-1.3s2.4-0.7,4-0.9c1.5-0.2,3.2-0.4,5.2-0.4v-1.5
		c0-1.7-0.4-3-1.1-3.8c-0.7-0.8-1.8-1.2-3.2-1.2c-1,0-1.8,0.1-2.5,0.3c-0.7,0.2-1.2,0.5-1.7,0.8c-0.5,0.3-0.9,0.6-1.3,0.8
		c-0.4,0.2-0.9,0.3-1.4,0.3c-0.4,0-0.8-0.1-1.1-0.3c-0.3-0.2-0.5-0.5-0.7-0.8L97.2,161.5L97.2,161.5z M139.9,179v-16.4h-6.3
		c-0.2,2.1-0.4,4.1-0.6,5.8c-0.2,1.7-0.5,3.2-0.9,4.6c-0.3,1.3-0.7,2.5-1.1,3.5c-0.4,1-0.8,1.8-1.3,2.6H139.9L139.9,179z
		 M150.5,178.8v11.2c0,0.6-0.2,1-0.5,1.3c-0.3,0.3-0.7,0.5-1.3,0.5H145v-8.5h-19.1v6.8c0,0.4-0.1,0.8-0.4,1.2s-0.7,0.5-1.3,0.5h-3.9
		V179h0.7c0.6,0,1.1-0.1,1.7-0.2c0.5-0.2,1.1-0.5,1.6-1c0.5-0.5,1-1.2,1.4-2.2c0.5-0.9,0.9-2.2,1.2-3.7s0.7-3.5,1-5.8
		c0.3-2.3,0.5-5,0.7-8.2h17.2v20.9H150.5z"/>
	<path class="st1" d="M189.6,165.4c0,2.6-0.4,5.1-1.3,7.3c-0.9,2.2-2.1,4.2-3.7,5.8c-1.6,1.6-3.5,2.9-5.7,3.8
		c-2.2,0.9-4.7,1.4-7.4,1.4c-2.7,0-5.2-0.5-7.4-1.4c-2.2-0.9-4.1-2.2-5.7-3.8c-1.6-1.6-2.8-3.6-3.7-5.8c-0.9-2.2-1.3-4.7-1.3-7.3
		c0-2.6,0.4-5.1,1.3-7.3c0.9-2.2,2.1-4.2,3.7-5.8c1.6-1.6,3.5-2.9,5.7-3.8c2.2-0.9,4.7-1.4,7.4-1.4c1.8,0,3.5,0.2,5.1,0.6
		c1.6,0.4,3.1,1,4.4,1.8c1.3,0.8,2.5,1.7,3.6,2.8c1.1,1.1,2,2.3,2.7,3.7c0.7,1.4,1.3,2.8,1.7,4.4C189.4,162,189.6,163.7,189.6,165.4
		L189.6,165.4z M182.8,165.4c0-2-0.3-3.7-0.8-5.3c-0.5-1.6-1.3-2.9-2.3-4c-1-1.1-2.2-1.9-3.6-2.5c-1.4-0.6-3-0.9-4.7-0.9
		s-3.3,0.3-4.7,0.9c-1.4,0.6-2.6,1.4-3.6,2.5c-1,1.1-1.7,2.4-2.3,4c-0.5,1.6-0.8,3.3-0.8,5.3c0,2,0.3,3.7,0.8,5.3
		c0.5,1.6,1.3,2.9,2.3,4c1,1.1,2.2,1.9,3.6,2.5c1.4,0.6,3,0.9,4.7,0.9s3.3-0.3,4.7-0.9c1.4-0.6,2.6-1.4,3.6-2.5c1-1.1,1.7-2.4,2.3-4
		C182.5,169.2,182.8,167.4,182.8,165.4L182.8,165.4z M209.3,159.5c0.3-0.5,0.7-0.9,1.2-1.2c0.5-0.3,1.1-0.4,1.6-0.4h4.8l-5.9,9.5
		c-0.4,0.7-0.8,1.2-1.3,1.6c-0.4,0.4-1,0.7-1.6,1c0.8,0.2,1.5,0.6,2,1.1c0.5,0.5,1,1.1,1.4,1.9l6,10.5h-4.2c-1.1,0-1.9-0.2-2.5-0.5
		c-0.6-0.4-1.1-0.9-1.5-1.6l-3.7-7c-0.3-0.6-0.8-1.1-1.3-1.4c-0.5-0.3-1.1-0.4-1.8-0.4h-2.3v11h-6.1v-25.5h6.1v10.5h2
		c0.7,0,1.3-0.1,1.7-0.4c0.4-0.3,0.8-0.6,1.1-1.2L209.3,159.5z"/>
</g>
<path class="st2" d="M66.8,203.7c0.5,0,0.9-0.1,1.3-0.2c0.4-0.1,0.7-0.3,1-0.6c0.3-0.2,0.5-0.5,0.6-0.8c0.1-0.3,0.2-0.7,0.2-1.1
	c0-0.8-0.3-1.5-0.8-1.9c-0.5-0.5-1.3-0.7-2.3-0.7h-2v5.3H66.8L66.8,203.7z M66.8,197.8c1.3,0,2.3,0.3,2.9,0.8c0.7,0.6,1,1.4,1,2.4
	c0,0.5-0.1,0.9-0.3,1.3c-0.2,0.4-0.4,0.7-0.8,1c-0.3,0.3-0.7,0.5-1.2,0.7c-0.5,0.2-1,0.2-1.6,0.2h-2v4.4H64v-10.9H66.8L66.8,197.8z
	 M82.6,203.3c0,0.8-0.1,1.6-0.4,2.3c-0.3,0.7-0.6,1.3-1.1,1.8c-0.5,0.5-1,0.9-1.6,1.1c-0.6,0.3-1.3,0.4-2.1,0.4
	c-0.8,0-1.5-0.1-2.1-0.4c-0.6-0.3-1.2-0.6-1.6-1.1c-0.5-0.5-0.8-1.1-1.1-1.8c-0.3-0.7-0.4-1.5-0.4-2.3c0-0.8,0.1-1.6,0.4-2.3
	c0.3-0.7,0.6-1.3,1.1-1.8c0.5-0.5,1-0.9,1.6-1.1c0.6-0.3,1.3-0.4,2.1-0.4c0.8,0,1.5,0.1,2.1,0.4c0.6,0.3,1.2,0.6,1.6,1.1
	c0.5,0.5,0.8,1.1,1.1,1.8C82.5,201.7,82.6,202.4,82.6,203.3L82.6,203.3z M81.8,203.3c0-0.8-0.1-1.4-0.3-2.1
	c-0.2-0.6-0.5-1.1-0.9-1.5c-0.4-0.4-0.8-0.7-1.4-1c-0.5-0.2-1.1-0.3-1.8-0.3c-0.6,0-1.2,0.1-1.8,0.3c-0.5,0.2-1,0.5-1.4,1
	c-0.4,0.4-0.7,0.9-0.9,1.5c-0.2,0.6-0.3,1.3-0.3,2.1c0,0.8,0.1,1.5,0.3,2.1c0.2,0.6,0.5,1.1,0.9,1.5c0.4,0.4,0.9,0.7,1.4,1
	c0.5,0.2,1.1,0.3,1.8,0.3c0.7,0,1.3-0.1,1.8-0.3c0.5-0.2,1-0.5,1.4-1c0.4-0.4,0.7-0.9,0.9-1.5C81.7,204.7,81.8,204,81.8,203.3
	L81.8,203.3z M91.6,208.1v-9.7h-4.4c-0.1,1.5-0.2,2.8-0.3,3.9c-0.1,1.1-0.3,2-0.5,2.8c-0.2,0.8-0.4,1.4-0.6,1.9
	c-0.2,0.5-0.5,0.8-0.7,1.1H91.6L91.6,208.1z M94.3,208.1v3.1c0,0.1,0,0.1-0.1,0.2c0,0-0.1,0.1-0.2,0.1h-0.5v-2.7h-9.8v2.5
	c0,0.1,0,0.1-0.1,0.2c0,0-0.1,0.1-0.2,0.1h-0.5v-3.4h1c0.2-0.1,0.4-0.2,0.5-0.4c0.2-0.2,0.3-0.4,0.5-0.8c0.2-0.3,0.3-0.8,0.5-1.3
	c0.1-0.5,0.3-1.1,0.4-1.9c0.1-0.7,0.2-1.6,0.3-2.6c0.1-1,0.1-2.1,0.2-3.4h5.9v10.3H94.3L94.3,208.1z M104.8,197.8v10.9H104v-9
	c0-0.2,0-0.3,0-0.5c0-0.2,0-0.4,0-0.5c-0.1,0.2-0.1,0.3-0.2,0.4c-0.1,0.1-0.1,0.3-0.2,0.4l-6.3,9c0,0.1-0.1,0.1-0.2,0.2
	c-0.1,0-0.1,0.1-0.2,0.1h-0.6v-10.9h0.8v9c0,0.2,0,0.3,0,0.5c0,0.2,0,0.3,0,0.5c0.1-0.2,0.1-0.3,0.2-0.4c0.1-0.1,0.1-0.3,0.2-0.4
	l6.3-9c0-0.1,0.1-0.1,0.2-0.2c0.1,0,0.1-0.1,0.2-0.1H104.8L104.8,197.8z M116.4,197.8v10.9h-0.8v-5.2h-6.8v5.2H108v-10.9h0.8v5.1
	h6.8v-5.1H116.4L116.4,197.8z M128.1,197.8v10.9h-0.8v-9c0-0.2,0-0.3,0-0.5c0-0.2,0-0.4,0-0.5c-0.1,0.2-0.1,0.3-0.2,0.4
	c-0.1,0.1-0.1,0.3-0.2,0.4l-6.3,9c0,0.1-0.1,0.1-0.2,0.2c-0.1,0-0.1,0.1-0.2,0.1h-0.6v-10.9h0.8v9c0,0.2,0,0.3,0,0.5
	c0,0.2,0,0.3,0,0.5c0.1-0.2,0.1-0.3,0.2-0.4c0.1-0.1,0.1-0.3,0.2-0.4l6.3-9c0-0.1,0.1-0.1,0.2-0.2c0.1,0,0.1-0.1,0.2-0.1H128.1
	L128.1,197.8z M146.3,197.8v10.9h-0.7v-9.3c0-0.1,0-0.3,0-0.4l-4.3,7.6c-0.1,0.1-0.2,0.2-0.3,0.2h-0.1c-0.1,0-0.2-0.1-0.3-0.2
	l-4.4-7.7c0,0.2,0,0.3,0,0.4v9.3h-0.7v-10.9h0.5c0.1,0,0.1,0,0.2,0c0,0,0.1,0.1,0.1,0.1l4.4,7.6c0.1,0.1,0.1,0.3,0.2,0.5
	c0-0.1,0.1-0.2,0.1-0.2c0-0.1,0.1-0.2,0.1-0.2l4.3-7.6c0-0.1,0.1-0.1,0.1-0.1c0,0,0.1,0,0.2,0H146.3L146.3,197.8z M156.1,208.1
	l0,0.7h-6.5v-10.9h6.5v0.7h-5.8v4.4h4.8v0.6h-4.8v4.6H156.1L156.1,208.1z M165.5,208.1v-9.7h-4.4c-0.1,1.5-0.2,2.8-0.3,3.9
	c-0.1,1.1-0.3,2-0.5,2.8c-0.2,0.8-0.4,1.4-0.6,1.9s-0.5,0.8-0.7,1.1H165.5L165.5,208.1z M168.2,208.1v3.1c0,0.1,0,0.1-0.1,0.2
	c0,0-0.1,0.1-0.2,0.1h-0.5v-2.7h-9.8v2.5c0,0.1,0,0.1-0.1,0.2c0,0-0.1,0.1-0.2,0.1H157v-3.4h1c0.2-0.1,0.4-0.2,0.5-0.4
	c0.2-0.2,0.3-0.4,0.5-0.8c0.2-0.3,0.3-0.8,0.5-1.3c0.1-0.5,0.3-1.1,0.4-1.9c0.1-0.7,0.2-1.6,0.3-2.6c0.1-1,0.1-2.1,0.2-3.4h5.9v10.3
	H168.2L168.2,208.1z M171,208.7h-0.8v-10.9h0.8V208.7L171,208.7z M182.3,208.7h-0.7c-0.1,0-0.2,0-0.3-0.1c-0.1,0-0.1-0.1-0.2-0.2
	l-3.6-4.4c-0.1-0.1-0.1-0.2-0.2-0.2c-0.1-0.1-0.1-0.1-0.2-0.2c-0.1,0-0.2-0.1-0.3-0.1c-0.1,0-0.2,0-0.4,0H175v5.3h-0.8v-10.9h0.8v5
	h1.3c0.1,0,0.2,0,0.4,0c0.1,0,0.2,0,0.3-0.1c0.1,0,0.2-0.1,0.3-0.2c0.1-0.1,0.2-0.2,0.3-0.3l3.4-4.2c0.1-0.1,0.1-0.1,0.2-0.2
	c0.1,0,0.2-0.1,0.2-0.1h0.6l-3.7,4.6c-0.1,0.2-0.3,0.3-0.4,0.4c-0.1,0.1-0.3,0.2-0.5,0.2c0.2,0.1,0.4,0.1,0.6,0.3
	c0.2,0.1,0.3,0.3,0.5,0.5L182.3,208.7L182.3,208.7z M190,204.8l-2.2-5.5c-0.1-0.2-0.2-0.4-0.2-0.6c0,0.1-0.1,0.2-0.1,0.4
	c0,0.1-0.1,0.2-0.1,0.3l-2.2,5.5H190L190,204.8z M192.4,208.7h-0.6c-0.1,0-0.1,0-0.2-0.1c0,0-0.1-0.1-0.1-0.1l-1.3-3.2h-5.4
	l-1.3,3.2c0,0.1-0.1,0.1-0.1,0.1c-0.1,0-0.1,0.1-0.2,0.1h-0.6l4.5-10.9h0.8L192.4,208.7L192.4,208.7z M197.8,208.1
	c1,0,1.7-0.2,2.2-0.6c0.5-0.4,0.7-1,0.7-1.7c0-0.3-0.1-0.7-0.2-0.9c-0.1-0.3-0.3-0.5-0.6-0.7c-0.2-0.2-0.6-0.3-0.9-0.4
	c-0.4-0.1-0.8-0.2-1.2-0.2H195v4.6H197.8L197.8,208.1z M195,198.4v4.5h2.4c0.5,0,0.9-0.1,1.3-0.2c0.4-0.1,0.7-0.3,0.9-0.5
	c0.2-0.2,0.4-0.5,0.5-0.7c0.1-0.3,0.2-0.5,0.2-0.8c0-0.7-0.2-1.3-0.7-1.7c-0.5-0.4-1.2-0.6-2.2-0.6H195L195,198.4z M197.4,197.8
	c0.6,0,1.2,0.1,1.6,0.2c0.5,0.1,0.8,0.3,1.1,0.5c0.3,0.2,0.5,0.5,0.7,0.9c0.1,0.3,0.2,0.7,0.2,1.2c0,0.3,0,0.6-0.1,0.8
	c-0.1,0.3-0.2,0.5-0.4,0.7c-0.2,0.2-0.4,0.4-0.7,0.6c-0.3,0.2-0.6,0.3-0.9,0.4c0.9,0.1,1.5,0.4,2,0.9c0.5,0.4,0.7,1,0.7,1.8
	c0,0.5-0.1,0.9-0.2,1.3c-0.2,0.4-0.4,0.7-0.7,0.9c-0.3,0.3-0.7,0.5-1.2,0.6c-0.5,0.1-1,0.2-1.6,0.2h-3.5v-10.9H197.4L197.4,197.8z
	 M210.6,208.1l0,0.7H204v-10.9h6.5v0.7h-5.8v4.4h4.8v0.6h-4.8v4.6H210.6L210.6,208.1z M215.8,203.7c0.5,0,0.9-0.1,1.3-0.2
	c0.4-0.1,0.7-0.3,1-0.6c0.3-0.2,0.5-0.5,0.6-0.8c0.1-0.3,0.2-0.7,0.2-1.1c0-0.8-0.3-1.5-0.8-1.9c-0.5-0.5-1.3-0.7-2.3-0.7h-2v5.3
	H215.8L215.8,203.7z M215.8,197.8c1.3,0,2.3,0.3,2.9,0.8c0.7,0.6,1,1.4,1,2.4c0,0.5-0.1,0.9-0.3,1.3c-0.2,0.4-0.4,0.7-0.8,1
	c-0.3,0.3-0.7,0.5-1.2,0.7c-0.5,0.2-1,0.2-1.6,0.2h-2v4.4H213v-10.9H215.8z"/>
<g>
	<path class="st0" d="M98.6,71.5c-4.8,0.7-9.9,6-8.3,12.3c3.5,13.9,23.5,8.3,20.5-4.6C109.6,74.2,104.6,70.7,98.6,71.5z"/>
	<path class="st0" d="M73.8,84.2c-7.4-8.2-13.4-3-6.6,3.3c19.6,17.7,23,20.5,21.7,47.9l11.6-0.1l11.6,0.1
		c-1.2-27.4,2.1-30.2,21.7-47.9c6.8-6.2,0.7-11.5-6.6-3.3c-7.2,8-15.8,12.7-26.7,12.8C88.3,96.9,81.8,93.1,73.8,84.2z"/>
</g>
<g>
	<path class="st3" d="M179.9,71.2c-4.8,0.7-9.9,6-8.3,12.3c3.5,13.9,23.5,8.3,20.5-4.6C190.9,73.8,185.9,70.4,179.9,71.2z"/>
	<path class="st3" d="M155.1,83.9c-7.4-8.2-13.4-3-6.6,3.3c19.6,17.7,23,20.5,21.7,47.9l11.6-0.1l11.6,0.1
		c-1.2-27.4,2.1-30.2,21.7-47.9c6.8-6.2,0.7-11.5-6.6-3.3c-7.2,8-15.8,12.7-26.7,12.8C169.6,96.6,163.1,92.7,155.1,83.9z"/>
</g>
<g>
	<path class="st1" d="M139.6,97.9c-2.8,0.4-5.8,3.5-4.8,7.2c2.1,8.1,13.7,4.8,12-2.7C146,99.4,143.1,97.4,139.6,97.9z"/>
	<path class="st1" d="M125.1,105.3c-4.3-4.8-7.8-1.7-3.9,1.9c11.4,10.3,13.4,12,12.7,28l6.8,0l6.8,0c-0.7-16,1.2-17.6,12.7-28
		c4-3.6,0.4-6.7-3.9-1.9c-4.2,4.7-9.2,7.4-15.6,7.5C133.6,112.7,129.8,110.5,125.1,105.3z"/>
</g>
</svg>
